<svg width="1" height="1" viewBox="0 0 1 1" fill="none" xmlns="http://www.w3.org/2000/svg">
<path d="M0.208333 0.583334C0.254357 0.583334 0.291667 0.546024 0.291667 0.5C0.291667 0.453977 0.254357 0.416667 0.208333 0.416667C0.16231 0.416667 0.125 0.453977 0.125 0.5C0.125 0.546024 0.16231 0.583334 0.208333 0.583334Z" fill="#536471"/>
<path d="M0.5 0.583334C0.546024 0.583334 0.583333 0.546024 0.583333 0.5C0.583333 0.453977 0.546024 0.416667 0.5 0.416667C0.453976 0.416667 0.416667 0.453977 0.416667 0.5C0.416667 0.546024 0.453976 0.583334 0.5 0.583334Z" fill="#536471"/>
<path d="M0.791667 0.583334C0.83769 0.583334 0.875 0.546024 0.875 0.5C0.875 0.453977 0.83769 0.416667 0.791667 0.416667C0.745643 0.416667 0.708333 0.453977 0.708333 0.5C0.708333 0.546024 0.745643 0.583334 0.791667 0.583334Z" fill="#536471"/>
</svg>
